<svg width="80" height="80" viewBox="0 0 80 80" fill="none" xmlns="http://www.w3.org/2000/svg">
<path d="M40 0C34.7471 0 29.5457 1.03463 24.6927 3.04482C19.8396 5.05501 15.4301 8.00139 11.7157 11.7157C4.21427 19.2172 0 29.3913 0 40C0 50.6087 4.21427 60.7828 11.7157 68.2843C15.4301 71.9986 19.8396 74.945 24.6927 76.9552C29.5457 78.9654 34.7471 80 40 80C50.6087 80 60.7828 75.7857 68.2843 68.2843C75.7857 60.7828 80 50.6087 80 40C80 35.36 79.16 30.76 77.56 26.44L71.16 32.84C71.72 35.2 72 37.6 72 40C72 48.4869 68.6286 56.6263 62.6274 62.6274C56.6263 68.6286 48.4869 72 40 72C31.5131 72 23.3737 68.6286 17.3726 62.6274C11.3714 56.6263 8 48.4869 8 40C8 31.5131 11.3714 23.3737 17.3726 17.3726C23.3737 11.3714 31.5131 8 40 8C42.4 8 44.8 8.28 47.16 8.84L53.6 2.4C49.24 0.84 44.64 0 40 0ZM68 0L52 16V22L41.8 32.2C41.2 32 40.6 32 40 32C37.8783 32 35.8434 32.8429 34.3431 34.3431C32.8429 35.8434 32 37.8783 32 40C32 42.1217 32.8429 44.1566 34.3431 45.6569C35.8434 47.1571 37.8783 48 40 48C42.1217 48 44.1566 47.1571 45.6569 45.6569C47.1571 44.1566 48 42.1217 48 40C48 39.4 48 38.8 47.8 38.2L58 28H64L80 12H68V0ZM40 16C33.6348 16 27.5303 18.5286 23.0294 23.0294C18.5286 27.5303 16 33.6348 16 40C16 46.3652 18.5286 52.4697 23.0294 56.9706C27.5303 61.4714 33.6348 64 40 64C46.3652 64 52.4697 61.4714 56.9706 56.9706C61.4714 52.4697 64 46.3652 64 40H56C56 44.2435 54.3143 48.3131 51.3137 51.3137C48.3131 54.3143 44.2435 56 40 56C35.7565 56 31.6869 54.3143 28.6863 51.3137C25.6857 48.3131 24 44.2435 24 40C24 35.7565 25.6857 31.6869 28.6863 28.6863C31.6869 25.6857 35.7565 24 40 24V16Z" fill="#5222D0"/>
</svg>
