<svg width="88" height="64" viewBox="0 0 88 64" fill="none" xmlns="http://www.w3.org/2000/svg">
<path d="M56 0C64.4869 0 72.6263 3.37142 78.6274 9.37258C84.6286 15.3737 88 23.5131 88 32C88 40.4869 84.6286 48.6263 78.6274 54.6274C72.6263 60.6286 64.4869 64 56 64C47.5131 64 39.3737 60.6286 33.3726 54.6274C27.3714 48.6263 24 40.4869 24 32C24 23.5131 27.3714 15.3737 33.3726 9.37258C39.3737 3.37142 47.5131 0 56 0ZM56 8C49.6348 8 43.5303 10.5286 39.0294 15.0294C34.5286 19.5303 32 25.6348 32 32C32 38.3652 34.5286 44.4697 39.0294 48.9706C43.5303 53.4714 49.6348 56 56 56C62.3652 56 68.4697 53.4714 72.9706 48.9706C77.4714 44.4697 80 38.3652 80 32C80 25.6348 77.4714 19.5303 72.9706 15.0294C68.4697 10.5286 62.3652 8 56 8ZM52 16H58V31.12L67.32 40.44L63.08 44.68L52 33.6V16ZM4 56C2.93913 56 1.92172 55.5786 1.17157 54.8284C0.421427 54.0783 0 53.0609 0 52C0 50.9391 0.421427 49.9217 1.17157 49.1716C1.92172 48.4214 2.93913 48 4 48H19.32C20.56 50.84 22.16 53.52 24 56H4ZM8 36C6.93913 36 5.92172 35.5786 5.17157 34.8284C4.42143 34.0783 4 33.0609 4 32C4 30.9391 4.42143 29.9217 5.17157 29.1716C5.92172 28.4214 6.93913 28 8 28H16.2L16 32L16.2 36H8ZM12 16C10.9391 16 9.92172 15.5786 9.17157 14.8284C8.42143 14.0783 8 13.0609 8 12C8 10.9391 8.42143 9.92172 9.17157 9.17157C9.92172 8.42143 10.9391 8 12 8H24C22.16 10.48 20.56 13.16 19.32 16H12Z" fill="#5222D0"/>
</svg>
